HIERARCHY
ROOT mixamorig:Hips
{
	OFFSET -0.000008 104.274872 1.554316
	CHANNELS 6 Xposition Yposition Zposition Xrotation Yrotation Zrotation
	JOINT mixamorig:Spine
	{
		OFFSET -0.000005 10.181595 0.131519
		CHANNELS 6 Xposition Yposition Zposition Xrotation Yrotation Zrotation
		JOINT mixamorig:Spine1
		{
			OFFSET -0.000000 9.893959 -1.470707
			CHANNELS 6 Xposition Yposition Zposition Xrotation Yrotation Zrotation
			JOINT mixamorig:Spine2
			{
				OFFSET -0.000000 9.220757 -1.370641
				CHANNELS 6 Xposition Yposition Zposition Xrotation Yrotation Zrotation
				JOINT mixamorig:Neck
				{
					OFFSET 0.000001 16.740417 -2.049036
					CHANNELS 6 Xposition Yposition Zposition Xrotation Yrotation Zrotation
					JOINT mixamorig:Head
					{
						OFFSET 0.000000 9.617874 1.685006
						CHANNELS 6 Xposition Yposition Zposition Xrotation Yrotation Zrotation
						JOINT mixamorig:HeadTop_End
						{
							OFFSET 0.000002 22.037354 7.501101
							CHANNELS 6 Xposition Yposition Zposition Xrotation Yrotation Zrotation
							End Site
							{
								OFFSET 0.000168 2310.654297 -282.823242
							}
						}
					}
				}
				JOINT mixamorig:RightShoulder
				{
					OFFSET -4.569970 11.014908 -2.160885
					CHANNELS 6 Xposition Yposition Zposition Xrotation Yrotation Zrotation
					JOINT mixamorig:RightArm
					{
						OFFSET -10.592851 -0.524811 -2.232101
						CHANNELS 6 Xposition Yposition Zposition Xrotation Yrotation Zrotation
						JOINT mixamorig:RightForeArm
						{
							OFFSET -27.841511 0.000031 -0.000004
							CHANNELS 6 Xposition Yposition Zposition Xrotation Yrotation Zrotation
							JOINT mixamorig:RightHand
							{
								OFFSET -28.328831 -0.000015 0.000015
								CHANNELS 6 Xposition Yposition Zposition Xrotation Yrotation Zrotation
								JOINT mixamorig:RightHandThumb1
								{
									OFFSET -2.464806 -1.573990 2.681852
									CHANNELS 6 Xposition Yposition Zposition Xrotation Yrotation Zrotation
									JOINT mixamorig:RightHandThumb2
									{
										OFFSET -3.215179 -1.872803 1.924282
										CHANNELS 6 Xposition Yposition Zposition Xrotation Yrotation Zrotation
										JOINT mixamorig:RightHandThumb3
										{
											OFFSET -2.654831 -1.527969 1.512609
											CHANNELS 6 Xposition Yposition Zposition Xrotation Yrotation Zrotation
											JOINT mixamorig:RightHandThumb4
											{
												OFFSET -2.018814 -1.152008 1.108052
												CHANNELS 6 Xposition Yposition Zposition Xrotation Yrotation Zrotation
												End Site
												{
													OFFSET -188.809540 -114.533607 132.431396
												}
											}
										}
									}
								}
								JOINT mixamorig:RightHandIndex1
								{
									OFFSET -9.108284 -0.517868 2.259835
									CHANNELS 6 Xposition Yposition Zposition Xrotation Yrotation Zrotation
									JOINT mixamorig:RightHandIndex2
									{
										OFFSET -3.699989 0.000000 0.001215
										CHANNELS 6 Xposition Yposition Zposition Xrotation Yrotation Zrotation
										JOINT mixamorig:RightHandIndex3
										{
											OFFSET -2.850006 0.000031 -0.000522
											CHANNELS 6 Xposition Yposition Zposition Xrotation Yrotation Zrotation
											JOINT mixamorig:RightHandIndex4
											{
												OFFSET -2.772186 -0.000015 -0.000020
												CHANNELS 6 Xposition Yposition Zposition Xrotation Yrotation Zrotation
												End Site
												{
													OFFSET -277.218445 0.000000 -0.050231
												}
											}
										}
									}
								}
								JOINT mixamorig:RightHandMiddle1
								{
									OFFSET -9.532516 -0.000031 -0.000023
									CHANNELS 6 Xposition Yposition Zposition Xrotation Yrotation Zrotation
									JOINT mixamorig:RightHandMiddle2
									{
										OFFSET -3.700005 -0.000015 0.003713
										CHANNELS 6 Xposition Yposition Zposition Xrotation Yrotation Zrotation
										JOINT mixamorig:RightHandMiddle3
										{
											OFFSET -2.949974 0.000015 -0.002054
											CHANNELS 6 Xposition Yposition Zposition Xrotation Yrotation Zrotation
											JOINT mixamorig:RightHandMiddle4
											{
												OFFSET -2.946640 0.000000 -0.000156
												CHANNELS 6 Xposition Yposition Zposition Xrotation Yrotation Zrotation
												End Site
												{
													OFFSET -294.664337 0.000000 -0.113670
												}
											}
										}
									}
								}
								JOINT mixamorig:RightHandRing1
								{
									OFFSET -9.103600 -0.043076 -1.865134
									CHANNELS 6 Xposition Yposition Zposition Xrotation Yrotation Zrotation
									JOINT mixamorig:RightHandRing2
									{
										OFFSET -3.379288 0.000000 -0.001055
										CHANNELS 6 Xposition Yposition Zposition Xrotation Yrotation Zrotation
										JOINT mixamorig:RightHandRing3
										{
											OFFSET -2.889687 -0.000015 0.000379
											CHANNELS 6 Xposition Yposition Zposition Xrotation Yrotation Zrotation
											JOINT mixamorig:RightHandRing4
											{
												OFFSET -2.638809 -0.000015 0.000941
												CHANNELS 6 Xposition Yposition Zposition Xrotation Yrotation Zrotation
												End Site
												{
													OFFSET -263.880371 0.000000 0.516020
												}
											}
										}
									}
								}
								JOINT mixamorig:RightHandPinky1
								{
									OFFSET -8.076683 -0.486710 -3.806280
									CHANNELS 6 Xposition Yposition Zposition Xrotation Yrotation Zrotation
									JOINT mixamorig:RightHandPinky2
									{
										OFFSET -3.600014 -0.000015 -0.003747
										CHANNELS 6 Xposition Yposition Zposition Xrotation Yrotation Zrotation
										JOINT mixamorig:RightHandPinky3
										{
											OFFSET -2.099983 0.000000 -0.005739
											CHANNELS 6 Xposition Yposition Zposition Xrotation Yrotation Zrotation
											JOINT mixamorig:RightHandPinky4
											{
												OFFSET -2.115768 -0.000031 -0.003680
												CHANNELS 6 Xposition Yposition Zposition Xrotation Yrotation Zrotation
												End Site
												{
													OFFSET -211.577087 0.000000 -0.350686
												}
											}
										}
									}
								}
							}
						}
					}
				}
				JOINT mixamorig:LeftShoulder
				{
					OFFSET 4.570447 11.014725 -2.160855
					CHANNELS 6 Xposition Yposition Zposition Xrotation Yrotation Zrotation
					JOINT mixamorig:LeftArm
					{
						OFFSET 10.592371 -0.524597 -2.232119
						CHANNELS 6 Xposition Yposition Zposition Xrotation Yrotation Zrotation
						JOINT mixamorig:LeftForeArm
						{
							OFFSET 27.841532 -0.000031 0.000026
							CHANNELS 6 Xposition Yposition Zposition Xrotation Yrotation Zrotation
							JOINT mixamorig:LeftHand
							{
								OFFSET 28.328846 -0.000061 0.000022
								CHANNELS 6 Xposition Yposition Zposition Xrotation Yrotation Zrotation
								JOINT mixamorig:LeftHandThumb1
								{
									OFFSET 2.466141 -1.576172 2.681732
									CHANNELS 6 Xposition Yposition Zposition Xrotation Yrotation Zrotation
									JOINT mixamorig:LeftHandThumb2
									{
										OFFSET 3.217812 -1.872070 1.916482
										CHANNELS 6 Xposition Yposition Zposition Xrotation Yrotation Zrotation
										JOINT mixamorig:LeftHandThumb3
										{
											OFFSET 2.656029 -1.528778 1.514513
											CHANNELS 6 Xposition Yposition Zposition Xrotation Yrotation Zrotation
											JOINT mixamorig:LeftHandThumb4
											{
												OFFSET 2.020889 -1.154053 1.115139
												CHANNELS 6 Xposition Yposition Zposition Xrotation Yrotation Zrotation
												End Site
												{
													OFFSET 190.885437 -115.081749 130.048782
												}
											}
										}
									}
								}
								JOINT mixamorig:LeftHandIndex1
								{
									OFFSET 9.109314 -0.518021 2.259871
									CHANNELS 6 Xposition Yposition Zposition Xrotation Yrotation Zrotation
									JOINT mixamorig:LeftHandIndex2
									{
										OFFSET 3.699989 0.000000 -0.000322
										CHANNELS 6 Xposition Yposition Zposition Xrotation Yrotation Zrotation
										JOINT mixamorig:LeftHandIndex3
										{
											OFFSET 2.850006 0.000000 0.000352
											CHANNELS 6 Xposition Yposition Zposition Xrotation Yrotation Zrotation
											JOINT mixamorig:LeftHandIndex4
											{
												OFFSET 2.774864 -0.000031 -0.000027
												CHANNELS 6 Xposition Yposition Zposition Xrotation Yrotation Zrotation
												End Site
												{
													OFFSET 277.486267 0.000000 -0.009857
												}
											}
										}
									}
								}
								JOINT mixamorig:LeftHandMiddle1
								{
									OFFSET 9.533394 0.000061 0.000044
									CHANNELS 6 Xposition Yposition Zposition Xrotation Yrotation Zrotation
									JOINT mixamorig:LeftHandMiddle2
									{
										OFFSET 3.699989 -0.000015 -0.000231
										CHANNELS 6 Xposition Yposition Zposition Xrotation Yrotation Zrotation
										JOINT mixamorig:LeftHandMiddle3
										{
											OFFSET 2.949997 -0.000015 -0.000059
											CHANNELS 6 Xposition Yposition Zposition Xrotation Yrotation Zrotation
											JOINT mixamorig:LeftHandMiddle4
											{
												OFFSET 2.952896 0.000031 0.000063
												CHANNELS 6 Xposition Yposition Zposition Xrotation Yrotation Zrotation
												End Site
												{
													OFFSET 295.289337 0.000000 0.022810
												}
											}
										}
									}
								}
								JOINT mixamorig:LeftHandRing1
								{
									OFFSET 9.104523 -0.042999 -1.865074
									CHANNELS 6 Xposition Yposition Zposition Xrotation Yrotation Zrotation
									JOINT mixamorig:LeftHandRing2
									{
										OFFSET 3.150009 -0.000031 0.000043
										CHANNELS 6 Xposition Yposition Zposition Xrotation Yrotation Zrotation
										JOINT mixamorig:LeftHandRing3
										{
											OFFSET 2.949982 -0.000015 0.000040
											CHANNELS 6 Xposition Yposition Zposition Xrotation Yrotation Zrotation
											JOINT mixamorig:LeftHandRing4
											{
												OFFSET 2.644348 0.000000 0.000057
												CHANNELS 6 Xposition Yposition Zposition Xrotation Yrotation Zrotation
												End Site
												{
													OFFSET 264.434631 0.000000 0.012105
												}
											}
										}
									}
								}
								JOINT mixamorig:LeftHandPinky1
								{
									OFFSET 8.077789 -0.486847 -3.806259
									CHANNELS 6 Xposition Yposition Zposition Xrotation Yrotation Zrotation
									JOINT mixamorig:LeftHandPinky2
									{
										OFFSET 3.599953 0.000031 0.014727
										CHANNELS 6 Xposition Yposition Zposition Xrotation Yrotation Zrotation
										JOINT mixamorig:LeftHandPinky3
										{
											OFFSET 2.100021 0.000015 0.007705
											CHANNELS 6 Xposition Yposition Zposition Xrotation Yrotation Zrotation
											JOINT mixamorig:LeftHandPinky4
											{
												OFFSET 2.125504 0.000031 0.007517
												CHANNELS 6 Xposition Yposition Zposition Xrotation Yrotation Zrotation
												End Site
												{
													OFFSET 212.550781 0.000000 0.625752
												}
											}
										}
									}
								}
							}
						}
					}
				}
			}
		}
	}
	JOINT mixamorig:RightUpLeg
	{
		OFFSET -8.207787 -6.751648 -1.599560
		CHANNELS 6 Xposition Yposition Zposition Xrotation Yrotation Zrotation
		JOINT mixamorig:RightLeg
		{
			OFFSET -0.000002 -44.370117 0.345942
			CHANNELS 6 Xposition Yposition Zposition Xrotation Yrotation Zrotation
			JOINT mixamorig:RightFoot
			{
				OFFSET 0.000003 -44.423679 -3.043532
				CHANNELS 6 Xposition Yposition Zposition Xrotation Yrotation Zrotation
				JOINT mixamorig:RightToeBase
				{
					OFFSET -0.000002 -8.728671 10.710558
					CHANNELS 6 Xposition Yposition Zposition Xrotation Yrotation Zrotation
					JOINT mixamorig:RightToe_End
					{
						OFFSET -0.000001 -0.000679 9.278119
						CHANNELS 6 Xposition Yposition Zposition Xrotation Yrotation Zrotation
						End Site
						{
							OFFSET 0.000000 -0.067690 927.812134
						}
					}
				}
			}
		}
	}
	JOINT mixamorig:LeftUpLeg
	{
		OFFSET 8.207793 -6.751686 -1.599556
		CHANNELS 6 Xposition Yposition Zposition Xrotation Yrotation Zrotation
		JOINT mixamorig:LeftLeg
		{
			OFFSET -0.000004 -44.370014 0.346954
			CHANNELS 6 Xposition Yposition Zposition Xrotation Yrotation Zrotation
			JOINT mixamorig:LeftFoot
			{
				OFFSET -0.000001 -44.423672 -3.044401
				CHANNELS 6 Xposition Yposition Zposition Xrotation Yrotation Zrotation
				JOINT mixamorig:LeftToeBase
				{
					OFFSET -0.000002 -8.728669 10.710558
					CHANNELS 6 Xposition Yposition Zposition Xrotation Yrotation Zrotation
					JOINT mixamorig:LeftToe_End
					{
						OFFSET -0.000003 -0.000679 9.278133
						CHANNELS 6 Xposition Yposition Zposition Xrotation Yrotation Zrotation
						End Site
						{
							OFFSET 0.000000 -0.068021 927.813477
						}
					}
				}
			}
		}
	}
}
MOTION
Frames: 3
Frame Time: 0.033333
0.000006 104.270477 1.554256 0.000010 0.000003 -0.000113 -0.000005 10.181587 0.131522 0.000001 -0.000003 0.000084 -0.000000 9.893967 -1.470711 0.000001 0.000000 -0.000000 -0.000000 9.220802 -1.370642 0.000000 -0.000000 -0.000000 0.000001 16.740433 -2.049030 0.000000 -0.000000 -0.000000 0.000000 9.617859 1.685014 0.000000 0.000000 0.000000 0.000002 22.037384 7.501101 0.000000 -0.000000 0.000000 -4.569968 11.014880 -2.160881 0.000008 0.000001 -0.000038 -10.592878 -0.524765 -2.231904 75.472655 29.357400 -22.919605 -27.841526 0.000014 0.000528 -56.339618 107.981302 72.767230 -28.328815 0.000019 0.000022 -0.000323 -0.000043 0.000007 -2.464416 -1.573931 2.682365 -31.415677 -152.728562 23.601051 -3.215236 -1.872530 1.924617 150.176312 34.173113 27.392940 -2.654952 -1.527893 1.513090 148.052506 26.396212 -40.146011 -2.018833 -1.151999 1.108069 -0.000003 0.000006 0.000002 -9.108377 -0.517577 2.260152 100.843891 18.974184 -22.915189 -3.700078 0.000322 0.001532 95.973727 13.910054 -15.397772 -2.850077 0.000360 -0.000267 94.298363 11.050563 -11.905354 -2.772155 -0.000002 -0.000022 -0.000000 0.000001 -0.000001 -9.532602 0.000264 0.000244 92.336276 17.595768 -18.466303 -3.700069 0.000333 0.003946 90.075100 10.697763 -10.618457 -2.950058 0.000335 -0.001811 90.044699 10.841126 -10.842493 -2.946627 0.000012 -0.000157 -0.000003 0.000000 0.000001 -9.103693 -0.042765 -1.864889 89.856493 18.268948 -18.179018 -3.379303 0.000338 -0.000844 88.601234 6.066729 -5.936814 -2.889733 0.000361 0.000626 93.035400 3.533950 -3.771874 -2.638819 -0.000000 0.000940 -0.000002 0.000002 0.000001 -8.076740 -0.486393 -3.806051 84.951284 16.636529 -15.110971 -3.600012 0.000288 -0.003525 88.369083 4.593335 -4.137501 -2.099998 0.000336 -0.005515 90.007256 2.482202 -2.273321 -2.115765 -0.000023 -0.003678 0.000001 0.000001 0.000001 4.570446 11.014691 -2.160851 -0.000018 0.000010 -0.000021 10.592406 -0.524473 -2.232352 72.118192 -15.681605 11.451728 27.841825 0.000063 -0.000195 100.200357 -70.362191 80.267966 28.328825 -0.000013 0.000025 0.000024 -0.000088 -0.000000 2.466014 -1.576174 2.681904 -35.566079 156.867111 -16.764800 3.217803 -1.871711 1.916357 154.688936 -31.560805 -3.497062 2.656092 -1.528644 1.514452 139.463092 -28.082898 42.671993 2.020890 -1.154083 1.115138 0.000003 -0.000004 0.000003 9.109355 -0.517867 2.259738 82.868541 -17.634881 15.581927 3.700032 0.000127 -0.000462 76.535815 -20.580994 16.315775 2.850068 0.000149 0.000191 75.169497 -16.372218 12.635284 2.774884 -0.000028 -0.000025 0.000001 0.000002 0.000001 9.533442 0.000210 -0.000105 82.964382 -15.501468 13.716347 3.700056 0.000156 -0.000361 84.068147 -16.105224 14.533910 2.950082 0.000144 -0.000206 83.007309 -19.822838 17.580729 2.952868 -0.000034 0.000063 0.000000 -0.000001 -0.000001 9.104582 -0.042853 -1.865229 83.002282 -14.887794 13.189928 3.150050 0.000190 -0.000090 86.024484 -11.813274 11.027532 2.950037 0.000168 -0.000069 86.400800 -14.242931 13.385019 2.644325 0.000031 0.000055 -0.000002 0.000000 0.000000 8.077843 -0.486728 -3.806421 73.850375 -15.993887 12.499160 3.600005 0.000168 0.014558 74.055206 -11.051140 8.725212 2.100049 0.000175 0.007536 77.813948 -10.722635 9.048559 2.125518 0.000001 0.007516 0.000000 -0.000001 0.000000 -8.207786 -6.751667 -1.599560 -0.077001 -0.000003 0.000080 -0.000002 -44.370110 0.345938 0.153719 -0.000000 -0.000000 0.000000 -44.423679 -3.043532 -0.076700 0.000000 -0.000002 -0.000006 -8.728667 10.710559 -0.000009 -0.000000 -0.000000 -0.000001 -0.000679 9.278123 0.000000 -0.000000 -0.000000 8.207792 -6.751710 -1.599556 -0.074518 -0.000003 0.000081 -0.000002 -44.370014 0.346960 0.148822 0.000002 0.000000 -0.000001 -44.423664 -3.044403 -0.074314 0.000000 -0.000002 -0.000004 -8.728671 10.710558 0.000007 -0.000000 -0.000000 0.000000 -0.000680 9.278137 -0.000000 0.000000 -0.000001 
0.000006 104.270477 1.554256 0.000010 0.000003 -0.000113 -0.000005 10.181587 0.131522 0.000001 -0.000003 0.000084 -0.000000 9.893967 -1.470711 0.000001 0.000000 -0.000000 -0.000000 9.220802 -1.370642 0.000000 -0.000000 -0.000000 0.000001 16.740433 -2.049030 0.000000 -0.000000 -0.000000 0.000000 9.617859 1.685014 0.000000 0.000000 0.000000 0.000002 22.037384 7.501101 0.000000 -0.000000 0.000000 -4.569968 11.014880 -2.160881 0.000008 0.000001 -0.000038 -10.592872 -0.524783 -2.231882 75.422432 32.908651 -25.727231 -27.841526 -0.000003 0.000545 -54.658240 105.300214 68.207717 -28.328810 0.000009 0.000030 -0.000322 -0.000043 0.000006 -2.464400 -1.573857 2.682359 -38.861027 -155.883714 9.679862 -3.215265 -1.872538 1.924620 150.046005 33.413258 22.097890 -2.654952 -1.527862 1.513062 146.943693 27.414025 -32.032887 -2.018826 -1.151998 1.108061 -0.000003 0.000000 0.000002 -9.108381 -0.517557 2.260123 98.744058 16.859355 -19.654778 -3.700076 0.000323 0.001513 95.529300 13.398453 -14.717951 -2.850083 0.000370 -0.000261 95.227460 11.072832 -12.123581 -2.772170 -0.000017 -0.000019 -0.000000 -0.000002 -0.000001 -9.532591 0.000266 0.000222 89.049746 16.069080 -15.948287 -3.700052 0.000321 0.003949 90.616127 10.004181 -10.018441 -2.950065 0.000346 -0.001805 93.373542 11.019124 -11.675834 -2.946621 0.000003 -0.000154 -0.000006 0.000001 -0.000002 -9.103701 -0.042753 -1.864883 88.937915 17.234712 -16.878869 -3.379308 0.000329 -0.000831 89.982422 6.061533 -6.076210 -2.889740 0.000359 0.000616 95.866213 4.505660 -5.040452 -2.638801 -0.000025 0.000942 0.000000 0.000003 0.000003 -8.076751 -0.486380 -3.806041 84.078379 16.507526 -14.767402 -3.600025 0.000291 -0.003535 87.116242 6.059527 -5.435518 -2.100005 0.000317 -0.005500 88.269041 3.524984 -3.213827 -2.115771 -0.000042 -0.003679 0.000001 0.000001 -0.000002 4.570446 11.014691 -2.160851 -0.000018 0.000010 -0.000021 10.592400 -0.524479 -2.232352 72.618653 -13.714636 10.100103 27.841825 0.000074 -0.000201 102.850484 -72.767620 85.466273 28.328838 -0.000028 0.000024 0.000021 -0.000090 0.000001 2.466243 -1.576097 2.681857 -0.873217 161.023513 -82.254022 3.217803 -1.871730 1.916380 162.728424 -31.237583 2.449030 2.656115 -1.528652 1.514468 142.326143 -26.695292 53.787719 2.020891 -1.154083 1.115150 0.000001 0.000004 0.000002 9.109399 -0.517878 2.259733 83.654859 -21.538672 19.309703 3.700050 0.000146 -0.000472 79.472591 -14.094453 11.749110 2.850049 0.000176 0.000212 78.120330 -11.513868 9.353477 2.774879 -0.000046 -0.000033 0.000000 -0.000000 0.000000 9.533475 0.000185 -0.000067 83.566388 -19.830951 17.747765 3.700040 0.000178 -0.000371 84.825731 -11.115712 10.157469 2.950052 0.000157 -0.000197 84.893856 -12.809963 11.727029 2.952873 -0.000016 0.000059 -0.000002 -0.000003 0.000000 9.104598 -0.042868 -1.865212 83.233580 -19.652944 17.496815 3.150044 0.000198 -0.000102 88.260292 -10.564388 10.251841 2.950037 0.000194 -0.000089 89.308767 -10.553079 10.428937 2.644324 0.000029 0.000064 -0.000001 -0.000002 0.000001 8.077861 -0.486736 -3.806387 75.455279 -20.263310 16.220584 3.599999 0.000162 0.014575 76.051042 -14.784721 11.995737 2.100026 0.000180 0.007544 79.498505 -11.907018 10.316287 2.125496 -0.000015 0.007512 -0.000001 0.000000 0.000000 -8.207786 -6.751667 -1.599560 -0.077001 -0.000003 0.000080 -0.000002 -44.370110 0.345938 0.153719 -0.000000 -0.000000 0.000000 -44.423679 -3.043532 -0.076700 0.000000 -0.000002 -0.000006 -8.728667 10.710559 -0.000009 -0.000000 -0.000000 -0.000001 -0.000679 9.278123 0.000000 -0.000000 -0.000000 8.207792 -6.751710 -1.599556 -0.074518 -0.000003 0.000081 -0.000002 -44.370014 0.346960 0.148822 0.000002 0.000000 -0.000001 -44.423664 -3.044403 -0.074314 0.000000 -0.000002 -0.000004 -8.728671 10.710558 0.000007 -0.000000 -0.000000 0.000000 -0.000680 9.278137 -0.000000 0.000000 -0.000001 
0.000006 104.270477 1.554256 0.000010 0.000003 -0.000113 -0.000005 10.181587 0.131522 0.000001 -0.000003 0.000084 -0.000000 9.893967 -1.470711 0.000001 0.000000 -0.000000 -0.000000 9.220802 -1.370642 0.000000 -0.000000 -0.000000 0.000001 16.740433 -2.049030 0.000000 -0.000000 -0.000000 0.000000 9.617859 1.685014 0.000000 0.000000 0.000000 0.000002 22.037384 7.501101 0.000000 -0.000000 0.000000 -4.569968 11.014880 -2.160881 0.000008 0.000001 -0.000038 -10.592860 -0.524797 -2.231850 75.357812 40.107188 -31.487643 -27.841545 0.000005 0.000553 -54.017815 102.968442 65.274608 -28.328823 0.000022 0.000031 -0.000320 -0.000046 0.000008 -2.464394 -1.573852 2.682343 -41.494485 -156.475399 4.072248 -3.215251 -1.872512 1.924625 148.675214 33.331432 24.391866 -2.654960 -1.527866 1.513064 146.209912 27.505947 -32.296222 -2.018842 -1.152015 1.108056 -0.000001 -0.000003 0.000002 -9.108378 -0.517553 2.260123 96.672175 16.316531 -18.356431 -3.700050 0.000341 0.001512 95.349168 13.217962 -14.474474 -2.850095 0.000373 -0.000263 95.544607 11.282238 -12.420912 -2.772171 0.000000 -0.000016 0.000001 -0.000005 -0.000000 -9.532600 0.000268 0.000208 87.450177 15.559862 -15.025899 -3.700060 0.000321 0.003941 90.532798 10.541479 -10.545588 -2.950059 0.000337 -0.001800 94.087372 11.521194 -12.359880 -2.946647 0.000014 -0.000162 0.000003 -0.000005 0.000000 -9.103694 -0.042778 -1.864888 87.992077 17.160707 -16.534763 -3.379318 0.000314 -0.000845 89.383366 6.085655 -6.036988 -2.889757 0.000367 0.000634 96.460569 4.460831 -5.043056 -2.638798 0.000012 0.000941 -0.000001 -0.000000 0.000002 -8.076735 -0.486398 -3.806047 83.244501 16.415769 -14.473243 -3.600019 0.000284 -0.003531 87.237075 5.302573 -4.729099 -2.099995 0.000333 -0.005520 88.781702 2.783429 -2.519123 -2.115786 -0.000042 -0.003679 -0.000004 0.000001 -0.000005 4.570446 11.014691 -2.160851 -0.000018 0.000010 -0.000021 10.592436 -0.524471 -2.232381 72.208111 -25.562540 18.788742 27.841829 0.000032 -0.000167 105.636997 -75.082869 90.746371 28.328840 -0.000029 0.000023 0.000023 -0.000088 -0.000000 2.466253 -1.576041 2.681840 7.483415 166.380143 -98.511532 3.217822 -1.871754 1.916384 165.262451 -28.627573 13.811189 2.656106 -1.528670 1.514486 141.193425 -26.974475 55.697597 2.020891 -1.154079 1.115151 -0.000001 -0.000000 0.000003 9.109387 -0.517885 2.259745 84.032651 -22.121697 19.964520 3.700037 0.000144 -0.000482 81.127559 -13.885637 11.916466 2.850041 0.000188 0.000215 80.202076 -11.234383 9.468307 2.774879 -0.000029 -0.000027 -0.000002 0.000000 -0.000000 9.533472 0.000185 -0.000088 84.080728 -21.316421 19.253494 3.700053 0.000182 -0.000400 85.922339 -11.076677 10.316950 2.950049 0.000171 -0.000205 86.030385 -12.247563 11.435475 2.952879 -0.000016 0.000065 0.000002 -0.000000 0.000001 9.104592 -0.042874 -1.865228 83.260320 -20.623913 18.373482 3.150041 0.000208 -0.000097 88.548922 -10.838630 10.570858 2.950032 0.000171 -0.000090 89.423733 -10.047800 9.949457 2.644326 0.000031 0.000056 -0.000000 -0.000001 -0.000000 8.077866 -0.486732 -3.806408 75.754509 -21.238926 17.080041 3.600005 0.000156 0.014566 76.866792 -16.180483 13.292578 2.100047 0.000175 0.007548 80.105135 -12.524465 10.950922 2.125496 0.000001 0.007515 0.000001 -0.000001 -0.000000 -8.207786 -6.751667 -1.599560 -0.077001 -0.000003 0.000080 -0.000002 -44.370110 0.345938 0.153719 -0.000000 -0.000000 0.000000 -44.423679 -3.043532 -0.076700 0.000000 -0.000002 -0.000006 -8.728667 10.710559 -0.000009 -0.000000 -0.000000 -0.000001 -0.000679 9.278123 0.000000 -0.000000 -0.000000 8.207792 -6.751710 -1.599556 -0.074518 -0.000003 0.000081 -0.000002 -44.370014 0.346960 0.148822 0.000002 0.000000 -0.000001 -44.423664 -3.044403 -0.074314 0.000000 -0.000002 -0.000004 -8.728671 10.710558 0.000007 -0.000000 -0.000000 0.000000 -0.000680 9.278137 -0.000000 0.000000 -0.000001 
